<svg width="1584" height="396" viewBox="0 0 1584 396" fill="none" xmlns="http://www.w3.org/2000/svg">
<rect width="1584" height="396" fill="#F5F5F5"/>
<g id="Awesome banner" clip-path="url(#clip0_0_1)">
<rect width="1584" height="396" fill="url(#paint0_linear_0_1)"/>
<ellipse id="Ellipse 2" cx="323" cy="64" rx="285" ry="288" fill="url(#paint1_linear_0_1)" fill-opacity="0.1"/>
<g id="copyright">
<path d="M75.95 334.52L72.30 334.52L72.30 311.16L77.20 311.16L83.70 330.04Q83.60 329.02 83.50 327.62Q83.41 326.23 83.33 324.79Q83.25 323.35 83.25 322.23L83.25 311.16L86.90 311.16L86.90 334.52L82 334.52L75.57 315.64Q75.63 316.57 75.73 317.88Q75.82 319.19 75.89 320.57Q75.95 321.94 75.95 323.10L75.95 334.52M98.80 334.84Q96.46 334.84 94.67 333.96Q92.88 333.08 91.89 331.53Q90.90 329.98 90.90 327.93Q90.90 325.78 92.13 324.18Q93.36 322.58 95.34 322.17L95.34 322.10Q93.65 321.75 92.61 320.38Q91.57 319 91.57 317.11Q91.57 315.26 92.48 313.85Q93.39 312.44 95.02 311.64Q96.66 310.84 98.80 310.84Q100.94 310.84 102.59 311.64Q104.24 312.44 105.15 313.85Q106.06 315.26 106.06 317.11Q106.06 319 105.01 320.38Q103.95 321.75 102.26 322.10L102.26 322.17Q104.24 322.58 105.47 324.18Q106.70 325.78 106.70 327.93Q106.70 329.98 105.71 331.53Q104.72 333.08 102.93 333.96Q101.14 334.84 98.80 334.84M98.80 320.73Q100.30 320.73 101.23 319.82Q102.16 318.90 102.16 317.46Q102.16 315.99 101.23 315.08Q100.30 314.17 98.80 314.17Q97.30 314.17 96.37 315.08Q95.44 315.99 95.44 317.46Q95.44 318.90 96.37 319.82Q97.30 320.73 98.80 320.73M98.80 331.45Q100.56 331.45 101.68 330.42Q102.80 329.40 102.80 327.74Q102.80 326.04 101.68 325Q100.56 323.96 98.80 323.96Q97.04 323.96 95.92 325Q94.80 326.04 94.80 327.74Q94.80 329.40 95.92 330.42Q97.04 331.45 98.80 331.45M114.35 334.52L110.70 334.52L110.70 311.16L115.60 311.16L122.10 330.04Q122 329.02 121.90 327.62Q121.81 326.23 121.73 324.79Q121.65 323.35 121.65 322.23L121.65 311.16L125.30 311.16L125.30 334.52L120.40 334.52L113.97 315.64Q114.03 316.57 114.13 317.88Q114.22 319.19 114.29 320.57Q114.35 321.94 114.35 323.10" fill="white" fill-opacity="0.9"/>
<path d="M161.48 325.24L151.24 325.24L151.24 322.68L161.48 322.68" fill="white" fill-opacity="0.9"/>
<path d="M195.02 334.84Q191.82 334.84 189.96 333.05Q188.11 331.26 188.11 328.12L188.11 317.56Q188.11 314.42 189.96 312.63Q191.82 310.84 195.02 310.84Q198.15 310.84 200.01 312.65Q201.87 314.46 201.87 317.56L198.99 317.56Q198.99 315.58 197.95 314.50Q196.91 313.43 195.02 313.43Q193.13 313.43 192.06 314.50Q190.99 315.58 190.99 317.56L190.99 328.12Q190.99 330.10 192.06 331.18Q193.13 332.25 195.02 332.25Q196.91 332.25 197.95 331.18Q198.99 330.10 198.99 328.12L201.87 328.12Q201.87 331.22 200.01 333.03Q198.15 334.84 195.02 334.84" fill="white" fill-opacity="0.9"/>
<path d="M213.96 334.84Q210.83 334.84 209 333.02Q207.18 331.19 207.18 327.80L207.18 317.88Q207.18 314.49 209 312.66Q210.83 310.84 213.96 310.84Q217.10 310.84 218.92 312.66Q220.75 314.49 220.75 317.85L220.75 327.80Q220.75 331.19 218.92 333.02Q217.10 334.84 213.96 334.84M213.96 332.25Q215.85 332.25 216.86 331.18Q217.87 330.10 217.87 328.12L217.87 317.56Q217.87 315.58 216.86 314.50Q215.85 313.43 213.96 313.43Q212.11 313.43 211.08 314.50Q210.06 315.58 210.06 317.56L210.06 328.12Q210.06 330.10 211.08 331.18Q212.11 332.25 213.96 332.25" fill="white" fill-opacity="0.9"/>
<path d="M228.65 334.52L225.87 334.52L225.87 311.16L230.12 311.16L233.10 321.27L236.20 311.16L240.46 311.16L240.46 334.52L237.67 334.52L237.67 323.48Q237.67 321.91 237.72 319.88Q237.77 317.85 237.87 315.77Q237.96 313.69 238.09 312.02L234.31 324.09L231.82 324.09L228.20 312.31Q228.46 314.68 228.55 317.50Q228.65 320.31 228.65 323.48" fill="white" fill-opacity="0.9"/>
<path d="M247.85 334.52L245.07 334.52L245.07 311.16L249.32 311.16L252.30 321.27L255.40 311.16L259.66 311.16L259.66 334.52L256.87 334.52L256.87 323.48Q256.87 321.91 256.92 319.88Q256.97 317.85 257.07 315.77Q257.16 313.69 257.29 312.02L253.51 324.09L251.02 324.09L247.40 312.31Q247.66 314.68 247.75 317.50Q247.85 320.31 247.85 323.48" fill="white" fill-opacity="0.9"/>
<path d="M271.56 334.84Q268.30 334.84 266.57 333.03Q264.84 331.22 264.84 328.12L264.84 311.16L267.72 311.16L267.72 328.12Q267.72 330.04 268.67 331.16Q269.61 332.28 271.56 332.28Q273.48 332.28 274.44 331.16Q275.40 330.04 275.40 328.12L275.40 311.16L278.28 311.16L278.28 328.12Q278.28 331.26 276.57 333.05Q274.86 334.84 271.56 334.84" fill="white" fill-opacity="0.9"/>
<path d="M286.83 334.52L284.04 334.52L284.04 311.16L287.88 311.16L295.02 331.16Q294.95 330.36 294.87 329.19Q294.79 328.02 294.75 326.73Q294.70 325.43 294.70 324.28L294.70 311.16L297.48 311.16L297.48 334.52L293.64 334.52L286.54 314.52Q286.60 315.29 286.67 316.46Q286.73 317.62 286.78 318.92Q286.83 320.22 286.83 321.40" fill="white" fill-opacity="0.9"/>
<path d="M316.20 334.52L303.72 334.52L303.72 331.90L308.49 331.90L308.49 313.78L303.72 313.78L303.72 311.16L316.20 311.16L316.20 313.78L311.43 313.78L311.43 331.90L316.20 331.90" fill="white" fill-opacity="0.9"/>
<path d="M330.60 334.52L327.72 334.52L327.72 313.78L321.32 313.78L321.32 311.16L337 311.16L337 313.78L330.60 313.78" fill="white" fill-opacity="0.9"/>
<path d="M349.80 334.52L346.92 334.52L346.92 325.78L339.88 311.16L342.95 311.16L347.50 320.76Q347.88 321.56 348.11 322.12Q348.33 322.68 348.39 322.94Q348.46 322.68 348.70 322.12Q348.94 321.56 349.32 320.76L353.87 311.16L356.84 311.16L349.80 325.78" fill="white" fill-opacity="0.9"/>
<path d="M382.83 334.52L380.04 334.52L380.04 311.16L383.88 311.16L391.02 331.16Q390.95 330.36 390.87 329.19Q390.79 328.02 390.75 326.73Q390.70 325.43 390.70 324.28L390.70 311.16L393.48 311.16L393.48 334.52L389.64 334.52L382.54 314.52Q382.60 315.29 382.67 316.46Q382.73 317.62 382.78 318.92Q382.83 320.22 382.83 321.40" fill="white" fill-opacity="0.9"/>
<path d="M405.96 334.84Q402.83 334.84 401 333.02Q399.18 331.19 399.18 327.80L399.18 317.88Q399.18 314.49 401 312.66Q402.83 310.84 405.96 310.84Q409.10 310.84 410.92 312.66Q412.75 314.49 412.75 317.85L412.75 327.80Q412.75 331.19 410.92 333.02Q409.10 334.84 405.96 334.84M405.96 332.25Q407.85 332.25 408.86 331.18Q409.87 330.10 409.87 328.12L409.87 317.56Q409.87 315.58 408.86 314.50Q407.85 313.43 405.96 313.43Q404.11 313.43 403.08 314.50Q402.06 315.58 402.06 317.56L402.06 328.12Q402.06 330.10 403.08 331.18Q404.11 332.25 405.96 332.25" fill="white" fill-opacity="0.9"/>
<path d="M424.55 334.52L418.51 334.52L418.51 311.16L424.55 311.16Q426.83 311.16 428.47 312.02Q430.12 312.89 431.03 314.46Q431.95 316.02 431.95 318.17L431.95 327.48Q431.95 329.62 431.03 331.21Q430.12 332.79 428.47 333.66Q426.83 334.52 424.55 334.52M421.39 313.72L421.39 331.96L424.55 331.96Q426.67 331.96 427.87 330.78Q429.07 329.59 429.07 327.48L429.07 318.17Q429.07 316.09 427.87 314.90Q426.67 313.72 424.55 313.72" fill="white" fill-opacity="0.9"/>
<path d="M451.40 334.52L437.96 334.52L437.96 311.16L451.40 311.16L451.40 313.78L440.81 313.78L440.81 321.02L450.28 321.02L450.28 323.58L440.81 323.58L440.81 331.90L451.40 331.90" fill="white" fill-opacity="0.9"/>
<path d="M463.69 334.84Q460.30 334.84 458.28 333.05Q456.27 331.26 456.27 328.12L459.15 328.12Q459.15 330.07 460.39 331.18Q461.64 332.28 463.69 332.28Q465.67 332.28 466.86 331.13Q468.04 329.98 468.04 328.12Q468.04 326.71 467.29 325.67Q466.54 324.63 465.13 324.25L461.58 323.26Q459.37 322.62 458.11 320.97Q456.84 319.32 456.84 317.08Q456.84 315.22 457.67 313.82Q458.51 312.41 460.01 311.62Q461.51 310.84 463.47 310.84Q465.45 310.84 466.97 311.62Q468.49 312.41 469.35 313.80Q470.22 315.19 470.22 317.02L467.34 317.02Q467.34 315.42 466.25 314.41Q465.16 313.40 463.47 313.40Q461.77 313.40 460.71 314.41Q459.66 315.42 459.66 317.02Q459.66 318.30 460.35 319.21Q461.03 320.12 462.28 320.47L465.93 321.50Q468.27 322.14 469.56 323.91Q470.86 325.69 470.86 328.12Q470.86 331.19 468.91 333.02Q466.95 334.84 463.69 334.84" fill="white" fill-opacity="0.9"/>
</g>
<path d="M74.37 197.64L72.23 197.64L72.23 180.12L77.63 180.12Q79.19 180.12 80.37 180.76Q81.54 181.39 82.19 182.52Q82.84 183.65 82.84 185.16Q82.84 186.94 81.93 188.21Q81.02 189.48 79.50 189.98L83.08 197.64L80.70 197.64L77.27 190.20L74.37 190.20L74.37 197.64M74.37 182.06L74.37 188.26L77.63 188.26Q78.98 188.26 79.79 187.40Q80.61 186.55 80.61 185.16Q80.61 183.74 79.79 182.90Q78.98 182.06 77.63 182.06" fill="white" fill-opacity="0.7"/>
<path d="M91.60 197.88Q89.27 197.88 87.84 196.48Q86.42 195.07 86.42 192.60L86.42 189.48Q86.42 187.01 87.84 185.60Q89.27 184.20 91.60 184.20Q93.16 184.20 94.32 184.82Q95.49 185.45 96.14 186.58Q96.78 187.70 96.78 189.24L96.78 191.59L88.53 191.59L88.53 192.84Q88.53 194.30 89.37 195.16Q90.21 196.01 91.60 196.01Q92.80 196.01 93.58 195.54Q94.36 195.07 94.53 194.28L96.69 194.28Q96.47 195.94 95.08 196.91Q93.69 197.88 91.60 197.88M88.53 189.24L88.53 189.91L94.67 189.91L94.67 189.24Q94.67 187.68 93.87 186.83Q93.06 185.98 91.60 185.98Q90.14 185.98 89.33 186.83Q88.53 187.68 88.53 189.24" fill="white" fill-opacity="0.7"/>
<path d="M107.42 197.64L104.58 197.64L100.10 184.44L102.42 184.44L105.30 193.32Q105.57 194.11 105.76 194.84Q105.95 195.58 106.05 195.98Q106.17 195.58 106.34 194.84Q106.50 194.11 106.74 193.32L109.62 184.44L111.90 184.44" fill="white" fill-opacity="0.7"/>
<path d="M120.40 197.88Q118.07 197.88 116.64 196.48Q115.22 195.07 115.22 192.60L115.22 189.48Q115.22 187.01 116.64 185.60Q118.07 184.20 120.40 184.20Q121.96 184.20 123.12 184.82Q124.29 185.45 124.94 186.58Q125.58 187.70 125.58 189.24L125.58 191.59L117.33 191.59L117.33 192.84Q117.33 194.30 118.17 195.16Q119.01 196.01 120.40 196.01Q121.60 196.01 122.38 195.54Q123.16 195.07 123.33 194.28L125.49 194.28Q125.27 195.94 123.88 196.91Q122.49 197.88 120.40 197.88M117.33 189.24L117.33 189.91L123.47 189.91L123.47 189.24Q123.47 187.68 122.67 186.83Q121.86 185.98 120.40 185.98Q118.94 185.98 118.13 186.83Q117.33 187.68 117.33 189.24" fill="white" fill-opacity="0.7"/>
<path d="M132.45 197.64L130.29 197.64L130.29 184.44L132.45 184.44L132.45 186.96L132.50 186.96Q132.66 185.69 133.58 184.94Q134.49 184.20 136.02 184.20Q138.09 184.20 139.20 185.44Q140.32 186.67 140.32 188.95L140.32 190.08L138.16 190.08L138.16 188.95Q138.16 186.07 135.35 186.07Q133.94 186.07 133.19 186.89Q132.45 187.70 132.45 189.24" fill="white" fill-opacity="0.7"/>
<path d="M149.97 197.88Q148.48 197.88 147.52 197.15Q146.56 196.42 146.39 195.12L146.37 195.12L146.37 197.64L144.21 197.64L144.21 180.12L146.37 180.12L146.37 183.96L146.32 186.96L146.34 186.96Q146.54 185.69 147.51 184.94Q148.48 184.20 149.97 184.20Q151.96 184.20 153.14 185.52Q154.31 186.84 154.31 189.12L154.31 192.98Q154.31 195.24 153.14 196.56Q151.96 197.88 149.97 197.88M149.25 196.01Q150.62 196.01 151.38 195.29Q152.15 194.57 152.15 192.96L152.15 189.12Q152.15 187.49 151.38 186.78Q150.62 186.07 149.25 186.07Q147.93 186.07 147.15 186.91Q146.37 187.75 146.37 189.24L146.37 192.84Q146.37 194.33 147.15 195.17Q147.93 196.01 149.25 196.01" fill="white" fill-opacity="0.7"/>
<path d="M79.95 136.06L70.54 136.06L70.54 65.98L92.24 65.98Q98.67 65.98 103.47 68.52Q108.27 71.07 110.96 75.63Q113.65 80.19 113.65 86.33Q113.65 93.44 110.05 98.52Q106.45 103.61 100.50 105.72L114.61 136.06L104.14 136.06L90.80 106.78L79.95 106.78L79.95 136.06M79.95 74.43L79.95 98.33L92.24 98.33Q97.62 98.33 100.74 95.07Q103.86 91.80 103.86 86.43Q103.86 80.96 100.69 77.69Q97.52 74.43 92.24 74.43L79.95 74.43M169.71 136.06L128.91 136.06L128.91 65.98L169.71 65.98L169.71 74.52L138.32 74.52L138.32 95.36L166.35 95.36L166.35 103.61L138.32 103.61L138.32 127.52L169.71 127.52L169.71 136.06M212.34 136.06L199.57 136.06L181.62 65.98L191.41 65.98L203.02 113.21Q204.18 117.72 204.99 121.90Q205.81 126.08 206.19 128.28Q206.48 126.08 207.39 121.85Q208.30 117.63 209.36 113.12L220.59 65.98L230.38 65.98L212.34 136.06M284.91 136.06L244.11 136.06L244.11 65.98L284.91 65.98L284.91 74.52L253.52 74.52L253.52 95.36L281.55 95.36L281.55 103.61L253.52 103.61L253.52 127.52L284.91 127.52L284.91 136.06M310.35 136.06L300.94 136.06L300.94 65.98L322.64 65.98Q329.07 65.98 333.87 68.52Q338.67 71.07 341.36 75.63Q344.05 80.19 344.05 86.33Q344.05 93.44 340.45 98.52Q336.85 103.61 330.90 105.72L345.01 136.06L334.54 136.06L321.20 106.78L310.35 106.78L310.35 136.06M310.35 74.43L310.35 98.33L322.64 98.33Q328.02 98.33 331.14 95.07Q334.26 91.80 334.26 86.43Q334.26 80.96 331.09 77.69Q327.92 74.43 322.64 74.43L310.35 74.43M380.14 136.06L358.54 136.06L358.54 65.98L378.80 65.98Q388.50 65.98 394.11 70.83Q399.73 75.68 399.73 84.12Q399.73 89.60 396.32 93.87Q392.91 98.14 387.54 99.10L387.54 99.39Q391.57 99.87 394.69 102.27Q397.81 104.67 399.58 108.36Q401.36 112.06 401.36 116.48Q401.36 125.50 395.65 130.78Q389.94 136.06 380.14 136.06M367.86 74.33L367.86 95.55L378.70 95.55Q384.08 95.55 387.15 92.72Q390.22 89.88 390.22 84.99Q390.22 80 387.15 77.16Q384.08 74.33 378.80 74.33L367.86 74.33M367.86 103.61L367.86 127.71L379.28 127.71Q385.14 127.71 388.50 124.59Q391.86 121.47 391.86 116.09Q391.86 110.52 388.50 107.07Q385.14 103.61 379.28 103.61" fill="url(#paint2_linear_0_1)"/>
<g id="Group 1">
<rect id="Rectangle 1" x="26" y="168" width="12" height="184" rx="5" fill="url(#paint3_linear_0_1)" fill-opacity="0.9"/>
</g>
<g id="Group 1_2">
<rect id="Rectangle 2" x="26" y="38" width="12" height="119" rx="5" fill="url(#paint4_linear_0_1)" fill-opacity="0.9"/>
</g>
<ellipse id="Ellipse 1" cx="148.5" cy="573" rx="215.5" ry="214" fill="url(#paint5_linear_0_1)" fill-opacity="0.4"/>
<rect id="Rectangle 3" x="1229" y="48" width="300" height="300" rx="25" fill="#FFFBFB" fill-opacity="0.9"/>
<g id="placeholder-logo"><g transform="translate(1229,48) translate(0.0,108.3) scale(2.6087)"><path fill="#494849" d="M112.9,18.5c-0.7-0.7-1.8-1.1-3.3-1.1c-1.7,0-2.8,0.7-3.6,1.3c-0.4,0.3-0.7,0.5-1,0.5c0,0-0.1,0-0.1,0
	c-0.2,0-0.3-0.1-0.4-0.2c-0.2-0.3-0.1-0.9,0.1-1.5c0-0.1,0.1-0.3,0.2-0.6l0,0c0.6-1.8,2.2-7.1,2.2-9.2c0-1.2-0.2-2-0.8-2.5
	c-0.6-0.6-1.6-0.9-3-0.9c-0.6,0-1,0.2-1.3,0.5c-0.9,0.9-0.8,2.8-0.7,4.1c0,0.3,0,0.6,0,0.8c0,3.4-0.9,5.7-1.7,8l-0.1,0.4l-0.1,0.2
	c-0.1,0.1-0.7,0.6-1.4,1.1c-1.1,0.9-1.5,1-1.6,1c0,0,0-0.1,0-0.4c0-0.2,0.1-0.4,0.1-0.6c0-0.1,0-0.2,0-0.2c0-0.7-0.1-1.1-0.3-1.4
	c-0.3-0.4-0.7-0.5-1.3-0.5c-1.8,0-2.7,1.4-3.2,2l0,0c-0.1,0.1-0.2,0.2-0.3,0.4c-0.4,0.6-0.5,0.8-0.9,0.8c-0.1,0-0.3-0.1-0.3-0.2
	c-0.2-0.2-0.2-0.4,0-1.1c0-0.2,0.1-0.3,0.1-0.5c0.1-0.6,0.2-0.9,0.1-1c-0.2-0.3-1-0.4-2.4-0.4c-1.2,0-2.1,0.4-2.7,1.2
	c-0.5,0.7-0.6,1.6-0.6,2c0,1.2-0.6,3.6-1,5.8l-0.1,0.2c-0.9,0.9-3.3,3-5.8,3c-1.6,0-2.7-0.8-3.3-1.4c-0.7-0.8-1-1.7-1-2.2
	c0-0.2,0-0.3,0-0.4c0.1-0.2,0.3-0.4,0.5-0.4c0.1,0,0.1,0,0.2,0c0.1,0,0.2,0,0.4,0c0.1,0,0.1,0,0.2,0c0.1,0,2-0.1,3.8-1
	c2-0.9,3-2.4,3-4.2c0-1.1-0.3-1.8-0.8-2.3c-0.7-0.6-1.8-0.9-3.4-0.9c-4.2,0-7.5,1.9-8.8,5.1l-0.2,0.5l-0.4-0.4
	c-1.5-1.3-2.1-2.8-2.3-3.3l0,0l0,0c-0.1-0.6-0.3-1-0.7-1.3c-0.3-0.3-0.8-0.4-1.4-0.4c-0.1,0-0.7,0-1.3,0.3c-0.8,0.4-1.2,1-1.2,1.9
	c0,0.4,0.4,0.8,0.8,1.2c0.5,0.5,1,1,0.8,1.6c-0.4,1.1-1.3,3.4-2.1,4.5c-1.1,1.5-2.3,2.2-3.6,2.2c0,0-0.1,0-0.1,0
	c-0.7,0-1-0.3-1.2-0.6c-0.4-0.5-0.5-1.4-0.3-2.6c0.2-1.2,0.6-2.7,1-4c0.3-0.8,0.5-1.5,0.5-1.9c0-0.3,0.1-0.5,0.1-0.7
	c0.2-0.7,0.2-1.2,0.1-1.4c-0.2-0.2-0.8-0.3-1.7-0.3c-2.7,0-3.7,2.9-3.9,3.5c-0.1,0.5-0.3,0.9-0.4,1.4l0,0c-0.4,1.3-0.8,2.6-1,4.1
	l0,0.1l-0.1,0.1c-0.1,0.1-3,3.3-6,3.3c-1.3,0-2.4-0.3-3.1-0.9c-0.7-0.5-0.9-1.2-1.1-1.6c-0.1-0.2-0.1-0.3,0-0.4
	c0.5-0.2,3.5-1.4,5.1-2.5c1.8-1.2,3-2.3,3-4.2c0-1.1-0.3-1.8-0.8-2.3c-0.7-0.6-1.8-0.9-3.4-0.9c-2.6,0-5,0.8-6.7,2.2
	c-1.8,1.6-2.8,3.8-2.8,6.5l0,1.2c-0.1,0.1-0.3,0.3-0.8,0.4c-0.5,0.2-1.3,0.4-2.4,0.4c-1.2,0-2.3-0.8-3.3-2.5c-0.8-1.4-1.4-3.1-1.6-4
	c-0.6-2.1-1.4-3-2-3.5c-0.1-0.1-0.1-0.1-0.2-0.2c-0.3-0.3-0.6-0.6-0.4-0.8c0.1-0.1,0.5-0.3,1-0.5c1.3-0.5,3.4-1.4,5.3-2.9
	c2.2-1.8,3.4-4.1,3.4-6.6c0-1.4-0.3-2.5-1-3.5c-0.7-0.9-1.7-1.7-3-2.2c-2.2-0.8-4.7-1-6.6-1c-1.6,0-7,0.1-12.2,1.8
	C3.7,4.2,0.3,7.8,0,12.8c-0.1,1.5,0.3,2.7,1.1,3.6c0.8,0.9,2,1.3,3.6,1.3c1.7,0,3.4-0.7,4.6-1.9c0.8-0.8,1.1-1.6,1.2-2.2l0-0.2
	l-0.2,0.1c-0.5,0.1-0.9,0.2-1.3,0.2c-0.9,0-1.6-0.4-1.9-1.1c-0.3-0.6-0.4-1.4-0.4-1.8c0-2,1.4-4.2,3.7-5.9c2.2-1.7,5-2.6,7.4-2.7
	c-0.4,0.6-1.5,2.3-2,3.8c-0.7,2-6,20-6.9,23.9c-0.3,1.4-0.1,1.9,0,2.1C9,31.9,9.1,32,9.5,32c0.1,0,0.1,0,0.2,0c0.1,0,0.1,0,0.3,0
	c0.2,0,0.4,0,0.7,0l0,0c0.4,0,0.8,0,1.2,0c1.2,0,2.1-0.1,2.6-0.3c0.4-0.2,0.5-0.3,0.5-0.4c0.1-1.5,0.4-3.6,0.9-5.6
	c0.2-1.1,0.7-2.7,1.1-4.2l0,0c0.4-1.4,0.8-2.8,0.9-3.5c0.1-0.7,0.7-0.8,0.9-0.8c0.5,0,1,0.4,1.3,0.7c0.7,0.9,1.4,2.4,1.3,4.9
	c-0.1,2,0,5.5,1.8,7.5c0.9,0.9,2.1,1.4,3.6,1.4c0,0,0.1,0,0.1,0c2,0,4-0.8,5.3-1.5c1.2-0.6,2.1-1.2,2.4-1.6c0.4,1,1.9,3.3,6.6,3.3
	c1.8,0,3.6-0.4,5.5-1.3c1.5-0.7,2.5-1.5,3.1-1.9c0.1-0.1,0.2-0.2,0.3-0.2c0.1,0.1,0.1,0.3,0.1,0.5c0,0.2-0.1,1.1,0.6,1.8
	c0.6,0.6,1.6,1,2.9,1c2.3,0,4.9-0.9,7.1-2.4c2.3-1.7,4-4,4.7-6.5l0.2-0.7l0.5,0.5c0.5,0.5,1.1,0.9,1.8,1.3l0.3,0.1l0,0.3
	c-0.1,0.5-0.1,1-0.1,1.5l0,0c0,0.1,0,1.5,0.3,2.5c0,0,0.2,0.9,1.2,1.8c0.6,0.5,1.2,0.9,2,1.2c1,0.4,2.1,0.5,3.4,0.5
	c3.9,0,6.4-1.8,7.6-2.9l0.9-0.9l-0.3,1.2c-0.1,0.3-0.3,1.3-0.3,1.6c0,0.3,0,0.5,0.1,0.6l0,0.1h3.9c0.1,0,0.1,0,0.2,0l0,0
	c0.1,0,0.1,0,0.2,0c0.3,0,0.4,0,0.5-0.1c0.1-0.1,0.2-0.3,0.2-0.5c0.3-5.9,2.4-8.7,3.2-9.7l0,0l0,0c0.2-0.3,0.4-0.5,0.7-0.5
	c0.2,0,0.4,0.1,0.4,0.4l0,0l0,0c0.1,0.3,0.7,1.3,1.8,1.4c0,0,0.1,0,0.1,0c0.2,0,0.5,0,0.8-0.1l0,0c0.8-0.3,1.5-0.7,2.3-1.3
	c0.2-0.1,0.3-0.3,0.5-0.4l1-1l-0.3,1.4c-0.4,1.5-0.6,2.9-0.6,4.5c0,2.1,0.6,3.6,1.7,4.7c1.1,1,2.7,1.5,4.7,1.5l0,0
	c0.3,0,2.7,0,5.1-1.3c3.1-1.7,4.7-4.6,4.7-8.8C114,20.4,113.6,19.3,112.9,18.5z M108.5,24.2c-0.4,1.7-1.1,3.3-1.9,4.6
	c-0.4,0.7-0.8,1.2-1.2,1.5c-0.4,0.4-0.8,0.6-1.2,0.6c-0.7,0-1.2-0.6-1.5-1.6c-0.3-1.1-0.2-2.6,0.1-4.3c0.4-1.6,1-3.2,1.7-4.1
	c0.6-0.9,1.4-1.3,2.1-1.4l0,0c0.1,0,0.1,0,0.3,0c0.4,0,1,0.1,1.5,0.7C109,21,109,22.3,108.5,24.2z M73.8,22l0.1-0.2
	c0.6-1.2,1.6-3.3,3.5-3.4l0,0c0,0,0.1,0,0.2,0c0.4,0,0.8,0.1,1,0.4C78.9,19,79,19.4,79,20c0,0.9-0.9,2.1-1.7,2.9
	C76.2,24,75,24.6,74,24.6c-0.2,0-0.4-0.1-0.5-0.3C73.1,23.8,73.4,22.8,73.8,22z M43.5,18.4c0,0,0.1,0,0.2,0c0.4,0,0.8,0.1,1,0.4
	c0.3,0.3,0.5,0.7,0.5,1.2c0,0.9-0.9,2.1-1.7,2.9c-1.1,1.1-3.1,2.3-4.2,2.4c0-0.1,0-0.3-0.1-0.4c-0.2-0.8,0.4-2.5,0.7-3l0.1-0.2
	C40.7,20.6,41.6,18.6,43.5,18.4L43.5,18.4z M23.3,1.9c0.1,0,0.1-0.1,0.1-0.1c0.1-0.1,0.2-0.1,0.3-0.1c0.4,0,1.5,0.4,2.4,1.4
	c0.6,0.7,1.3,1.9,1.1,3.7c-0.2,1.9-0.7,3.6-1.4,4.9c-0.6,1.1-1.4,2-2.3,2.7c-1.6,1.2-3.4,1.3-4.2,1.3c-0.3,0-0.4,0-0.5,0l0,0
	c-0.2,0-0.3-0.1-0.4-0.2c-0.2-0.3-0.1-0.8,0.4-2.2c0.1-0.2,0.1-0.4,0.2-0.7C21,6,22.4,2.9,22.6,2.6C22.8,2.2,23.1,2,23.3,1.9z"/></g></g>
</g>
<defs>
<linearGradient id="paint0_linear_0_1" x1="0" y1="198" x2="1584" y2="198" gradientUnits="userSpaceOnUse">
<stop stop-color="#3D052C"/>
<stop offset="1"/>
</linearGradient>
<linearGradient id="paint1_linear_0_1" x1="323" y1="-224" x2="323" y2="352" gradientUnits="userSpaceOnUse">
<stop stop-color="#28F6F2" stop-opacity="0.4"/>
<stop offset="1" stop-color="#17908E" stop-opacity="0.7"/>
</linearGradient>
<linearGradient id="paint2_linear_0_1" x1="148.5" y1="38" x2="148.5" y2="140" gradientUnits="userSpaceOnUse">
<stop stop-color="white"/>
<stop offset="1" stop-color="#999999"/>
</linearGradient>
<linearGradient id="paint3_linear_0_1" x1="38" y1="260" x2="26" y2="260" gradientUnits="userSpaceOnUse">
<stop stop-color="#D9D9D9"/>
<stop offset="1" stop-color="#737373"/>
</linearGradient>
<linearGradient id="paint4_linear_0_1" x1="38" y1="97.5" x2="26" y2="97.5" gradientUnits="userSpaceOnUse">
<stop stop-color="#D9D9D9"/>
<stop offset="1" stop-color="#737373"/>
</linearGradient>
<linearGradient id="paint5_linear_0_1" x1="27.5" y1="434.5" x2="148.5" y2="787" gradientUnits="userSpaceOnUse">
<stop stop-color="#2E21BC"/>
<stop offset="1" stop-color="#150F56"/>
</linearGradient>
<clipPath id="clip0_0_1">
<rect width="1584" height="396" fill="white"/>
</clipPath>
</defs>
</svg>
